<svg width="128" height="128" viewBox="0 0 128 128" fill="none" xmlns="http://www.w3.org/2000/svg">
<g filter="url(#filter0_d_3735_835)">
<circle cx="64" cy="58" r="40" fill="white"/>
<g clip-path="url(#clip0_3735_835)">
<path fill-rule="evenodd" clip-rule="evenodd" d="M57.5812 38.4697C57.5557 36.341 58.2021 34.5523 59.4537 33.2969C60.5948 32.1531 62.2233 31.5 63.939 31.5H64.0679C65.7772 31.5 67.4055 32.1531 68.5455 33.2969C69.7979 34.5523 70.4447 36.341 70.4181 38.4697C70.3634 42.8709 68.6474 47.9215 63.9993 48.9529C59.3516 47.9215 57.6362 42.8709 57.5812 38.4697ZM62.3787 49.9686C62.8987 49.8591 63.4284 49.8019 63.9598 49.7979C63.9733 49.7986 63.986 49.8024 63.9995 49.8024C64.013 49.8024 64.0257 49.7986 64.0401 49.7979C64.5713 49.8019 65.1008 49.8591 65.6206 49.9686L66.2992 59.0624L63.9999 62.3964L61.7012 59.0624L62.3787 49.9686ZM47.6503 58.3502V67.2223H52.9308V61.5365C52.9325 61.4264 52.9775 61.3213 53.056 61.2441C53.1345 61.1668 53.2402 61.1235 53.3503 61.1235C53.4605 61.1235 53.5662 61.1668 53.6447 61.2441C53.7232 61.3213 53.7681 61.4264 53.7698 61.5365V67.2223H56.4198C57.3786 66.1634 58.5486 65.3172 59.8544 64.738C61.1603 64.1589 62.5729 63.8598 64.0014 63.8599C65.4299 63.8601 66.8425 64.1595 68.1482 64.7389C69.4538 65.3182 70.6237 66.1647 71.5823 67.2238C71.5883 67.2238 71.5943 67.2223 71.601 67.2223H74.2314V61.5365C74.2314 61.4254 74.2756 61.3188 74.3542 61.2402C74.4328 61.1616 74.5394 61.1175 74.6505 61.1175C74.7616 61.1175 74.8682 61.1616 74.9468 61.2402C75.0254 61.3188 75.0695 61.4254 75.0695 61.5365V67.2223H80.3495V58.3502C80.2416 55.5241 78.4941 53.2666 75.8957 52.5992L66.4781 50.1761L67.1477 59.1471C67.1546 59.2427 67.1287 59.3379 67.0743 59.4168L64.3452 63.3731C64.3069 63.4291 64.2554 63.475 64.1953 63.5068C64.1352 63.5385 64.0683 63.555 64.0003 63.555C63.9323 63.555 63.8654 63.5385 63.8053 63.5068C63.7452 63.475 63.6937 63.4291 63.6553 63.3731L60.9266 59.4168C60.872 59.3379 60.8459 59.2428 60.8526 59.1471L61.5229 50.1761L52.104 52.5992C49.5064 53.2666 47.7597 55.5242 47.6503 58.3502ZM41.3181 80.1377L47.5155 74.4502C47.5578 74.4108 47.5916 74.3632 47.6148 74.3103C47.638 74.2573 47.6501 74.2002 47.6503 74.1424C47.6505 74.0846 47.6388 74.0274 47.616 73.9743C47.5932 73.9212 47.5598 73.8733 47.5178 73.8337L41.3076 68.0605H55.7352C54.4523 69.8125 53.7608 71.9276 53.7608 74.0991C53.7608 76.2706 54.4523 78.3856 55.7352 80.1377H41.3181ZM63.9999 83.5C62.1406 83.5 60.323 82.9486 58.7771 81.9157C57.2311 80.8827 56.0261 79.4144 55.3146 77.6966C54.6031 75.9789 54.4169 74.0886 54.7796 72.265C55.1424 70.4414 56.0377 68.7664 57.3525 67.4516C58.6672 66.1369 60.3423 65.2415 62.1659 64.8788C63.9895 64.516 65.8797 64.7022 67.5975 65.4137C69.3153 66.1253 70.7835 67.3302 71.8165 68.8762C72.8495 70.4222 73.4009 72.2397 73.4009 74.0991C73.3979 76.5914 72.4065 78.9809 70.6441 80.7432C68.8817 82.5056 66.4923 83.497 63.9999 83.5ZM72.2646 80.1377H86.6818L80.4852 74.4502C80.4426 74.411 80.4086 74.3634 80.3853 74.3104C80.362 74.2575 80.3498 74.2003 80.3496 74.1424C80.3494 74.0846 80.3611 74.0273 80.384 73.9742C80.4069 73.921 80.4406 73.8732 80.4828 73.8337L86.6922 68.061H72.2646C73.5479 69.8128 74.2398 71.928 74.2398 74.0996C74.2398 76.2712 73.5479 78.3858 72.2646 80.1377ZM71.6893 72.3329C71.7151 72.413 71.7162 72.499 71.6926 72.5798C71.6689 72.6606 71.6216 72.7324 71.5568 72.7861L67.6568 76.0188L68.9121 80.9286C68.9327 81.0099 68.9284 81.0954 68.8998 81.1742C68.8713 81.253 68.8197 81.3214 68.7518 81.3705C68.6803 81.4235 68.5936 81.452 68.5046 81.4518C68.4256 81.4515 68.3482 81.4291 68.2812 81.3873L63.9999 78.6758L59.7193 81.3875C59.6482 81.432 59.5655 81.4542 59.4817 81.4513C59.398 81.4484 59.317 81.4206 59.2492 81.3713C59.1814 81.322 59.1298 81.2536 59.1012 81.1748C59.0726 81.096 59.0682 81.0105 59.0886 80.9291L60.3437 76.0188L56.4437 72.7861C56.3791 72.7325 56.332 72.6607 56.3086 72.5801C56.2852 72.4995 56.2866 72.4137 56.3125 72.3338C56.3384 72.254 56.3876 72.1837 56.4539 72.1322C56.5201 72.0806 56.6003 72.0501 56.6841 72.0447L61.74 71.7204L63.611 67.0113C63.6423 66.9335 63.6961 66.8668 63.7656 66.8198C63.8351 66.7728 63.917 66.7477 64.0009 66.7477C64.0848 66.7477 64.1667 66.7728 64.2362 66.8198C64.3057 66.8668 64.3595 66.9335 64.3907 67.0113L66.2611 71.7204L71.3177 72.0447C71.4015 72.0501 71.4817 72.0805 71.548 72.1319C71.6143 72.1833 71.6632 72.2532 71.6893 72.3329Z" fill="#9C3874"/>
</g>
</g>
<defs>
<filter id="filter0_d_3735_835" x="0" y="0" width="128" height="128" filterUnits="userSpaceOnUse" color-interpolation-filters="sRGB">
<feFlood flood-opacity="0" result="BackgroundImageFix"/>
<feColorMatrix in="SourceAlpha" type="matrix" values="0 0 0 0 0 0 0 0 0 0 0 0 0 0 0 0 0 0 127 0" result="hardAlpha"/>
<feOffset dy="6"/>
<feGaussianBlur stdDeviation="12"/>
<feComposite in2="hardAlpha" operator="out"/>
<feColorMatrix type="matrix" values="0 0 0 0 0 0 0 0 0 0 0 0 0 0 0 0 0 0 0.1 0"/>
<feBlend mode="normal" in2="BackgroundImageFix" result="effect1_dropShadow_3735_835"/>
<feBlend mode="normal" in="SourceGraphic" in2="effect1_dropShadow_3735_835" result="shape"/>
</filter>
<clipPath id="clip0_3735_835">
<rect width="52" height="52" fill="white" transform="translate(38 31)"/>
</clipPath>
</defs>
</svg>
